HIERARCHY
ROOT Hips
{
  OFFSET 2.26061 22.2878 23.7974
  CHANNELS 6 Xposition Yposition Zposition Zrotation Xrotation Yrotation
  JOINT LeftUpLeg
  {
    OFFSET 8.64259 1.95398 -2.38835
    CHANNELS 3 Zrotation Xrotation Yrotation
    JOINT LeftLeg
    {
      OFFSET 43.7702 0 0
      CHANNELS 3 Zrotation Xrotation Yrotation
      JOINT LeftFoot
      {
        OFFSET 40.6238 0 0
        CHANNELS 3 Zrotation Xrotation Yrotation
        JOINT LeftToeBase
        {
          OFFSET 12.7242 0 0
          CHANNELS 3 Zrotation Xrotation Yrotation
          End Site
          {
            OFFSET 0 0 0
          }
        }
      }
    }
  }
  JOINT RightUpLeg
  {
    OFFSET -8.2249 1.95398 -2.59336
    CHANNELS 3 Zrotation Xrotation Yrotation
    JOINT RightLeg
    {
      OFFSET 43.5653 0 0
      CHANNELS 3 Zrotation Xrotation Yrotation
      JOINT RightFoot
      {
        OFFSET 40.6238 0 0
        CHANNELS 3 Zrotation Xrotation Yrotation
        JOINT RightToeBase
        {
          OFFSET 12.7242 0 0
          CHANNELS 3 Zrotation Xrotation Yrotation
          End Site
          {
            OFFSET 0 0 0
          }
        }
      }
    }
  }
  JOINT Spine
  {
    OFFSET 0.165834 0.87714 6.61349
    CHANNELS 3 Zrotation Xrotation Yrotation
    JOINT Spine1
    {
      OFFSET 7.38963 1.71661e-005 0
      CHANNELS 3 Zrotation Xrotation Yrotation
      JOINT Spine2
      {
        OFFSET 11.9445 1.14441e-005 0
        CHANNELS 3 Zrotation Xrotation Yrotation
        JOINT Spine3
        {
          OFFSET 14.7254 4.19617e-005 0
          CHANNELS 3 Zrotation Xrotation Yrotation
          JOINT Spine4
          {
            OFFSET 10.9679 0 0
            CHANNELS 3 Zrotation Xrotation Yrotation
            JOINT RightShoulder
            {
              OFFSET 2.46616 -1.6653 3.69651
              CHANNELS 3 Zrotation Xrotation Yrotation
              JOINT RightArm
              {
                OFFSET 13.0012 0 0
                CHANNELS 3 Zrotation Xrotation Yrotation
                JOINT RightForeArm
                {
                  OFFSET 28.7848 1.52588e-005 0
                  CHANNELS 3 Zrotation Xrotation Yrotation
                  JOINT RightHand
                  {
                    OFFSET 26.5688 1.52588e-005 0
                    CHANNELS 3 Zrotation Xrotation Yrotation
                    End Site
                    {
                      OFFSET 0 0 0
                    }
                  }
                }
              }
            }
            JOINT LeftShoulder
            {
              OFFSET 2.38034 -1.29275 -3.7523
              CHANNELS 3 Zrotation Xrotation Yrotation
              JOINT LeftArm
              {
                OFFSET 16.3182 6.10351e-005 0
                CHANNELS 3 Zrotation Xrotation Yrotation
                JOINT LeftForeArm
                {
                  OFFSET 27.0901 0 0
                  CHANNELS 3 Zrotation Xrotation Yrotation
                  JOINT LeftHand
                  {
                    OFFSET 24.5451 1.52588e-005 0
                    CHANNELS 3 Zrotation Xrotation Yrotation
                    End Site
                    {
                      OFFSET 0 0 0
                    }
                  }
                }
              }
            }
            JOINT Neck
            {
              OFFSET 5.0226 -0.0266342 0
              CHANNELS 3 Zrotation Xrotation Yrotation
              JOINT Head
              {
                OFFSET 6.69363 2.86102e-005 0
                CHANNELS 3 Zrotation Xrotation Yrotation
                End Site
                {
                  OFFSET 0 0 0
                }
              }
            }
          }
        }
      }
    }
  }
}
MOTION
Frames:	11
Frame Time:	0.0416667
-269.908 81.3841 -259.872 79.1739 17.1948 90.7817 -152.759 53.3251 114.008 -63.0953 23.2345 -31.1193 66.1048 11.1902 51.4727 -137.739 35.9758 -78.1283 -152.498 2.20165 108.759 152.321 -5.20339 -79.8674 -1.83571 -22.8158 23.6556 38.1758 31.109 166.907 -6.73605 6.69802 -92.3881 13.3805 -14.5172 -2.94151 1.79274 -14.6323 -2.27834 -21.2731 -12.953 -7.23403 -1.26049 -12.953 -7.23402 98.3254 -64.7483 -86.9796 -3.58142 -31.4612 44.5587 -26.1928 57.991 -116.46 -8.92496 5.1222 -59.8678 -143.496 -69.9976 20.7399 2.21644 12.2318 6.39696 -40.3893 4.3079 -118.064 6.56788 6.00317 64.1243 -32.0647 -10.1804 33.8957 41.2461 -12.8367 -19.8018 
-267.499 83.1077 -255.659 80.3906 16.1726 90.0867 -179.504 51.873 111.433 -72.3842 -4.25133 -2.01959 61.4 -19.9624 32.7604 -161.467 4.63285 -86.483 -151.651 8.23429 117.122 118.393 -1.62383 -87.9737 4.75864 -4.78083 20.2545 37.5338 18.7027 166.054 -6.08628 8.13583 -92.0071 10.476 -13.0449 -2.85013 -1.13024 -13.1575 -2.26442 -24.0829 -11.5791 -6.68482 -4.07024 -11.5791 -6.68481 92.9164 -60.6416 -94.6292 9.28097 -28.2188 37.5525 -5.50083 49.1669 -131.451 -10.7602 6.04739 -61.2541 -120.983 -61.178 41.371 2.55358 14.994 -3.31496 -37.8362 0.399502 -116.572 9.60482 6.62832 54.0033 -10.7059 -0.952855 6.41351 29.7701 -1.74543 -1.36423 
-264.384 84.9438 -251.306 80.5219 15.322 89.6647 173.896 53.1817 93.8471 -68.189 -18.3042 16.0865 22.2004 -34.9706 -26.4539 -136.261 -51.1049 -68.9775 -149.966 46.7896 102.171 -22.0682 63.3656 -93.0209 116.885 80.8821 -38.8032 37.0736 9.19629 161.59 -5.70408 8.75196 -91.8757 9.23703 -12.2155 -2.83442 -2.37748 -12.3282 -2.28618 -25.272 -10.7942 -6.41116 -5.25935 -10.7941 -6.41116 91.2704 -53.1048 -98.2458 18.4675 -23.7976 33.5799 -8.82565 45.6674 -125.612 -13.2219 7.4563 -61.3937 -109.836 -54.2209 52.0997 -0.203743 21.1405 -11.6171 -32.1883 -5.2863 -113.707 16.6864 6.19515 31.6925 0.677967 -0.95638 0.619048 22.8588 -0.79964 0.939834 
-260.465 86.8858 -247.137 80.8155 14.5954 89.475 176.092 53.049 88.0993 -77.5845 27.5141 12.8464 55.2047 -5.01384 -25.687 26.1145 -0.598386 1.40175 -156.952 53.22 101.581 -72.0926 72.9862 -31.8723 118.6 56.7585 -21.4405 37.7258 11.8076 158.593 -5.44432 9.0202 -91.7366 8.71 -11.6322 -2.67733 -2.90983 -11.7386 -2.15599 -25.7712 -10.2857 -6.08115 -5.75856 -10.2857 -6.08115 91.5351 -49.1915 -98.6327 23.1884 -22.441 32.0557 -15.5879 41.6588 -115.522 -18.1706 10.2919 -61.3315 -105.302 -49.9965 56.4268 -0.799548 29.2812 -17.1773 -22.6287 -11.3453 -108.049 26.3992 1.20864 0.764246 5.06962 -1.5038 -1.77028 19.6477 -0.829694 1.70673 
-255.234 88.2904 -242.936 79.3364 13.3776 90.3407 -177.692 51.4943 83.4889 -77.3367 70.1665 12.5928 57.7237 10.0409 13.8028 45.1179 14.7781 14.1385 -171.711 47.9337 115.801 -83.5702 71.538 -13.8691 132.48 41.0999 -22.7948 38.1601 13.7615 157.231 -5.1834 8.83633 -91.8044 9.07801 -11.1443 -2.79229 -2.54648 -11.2563 -2.29322 -25.3731 -9.7867 -6.0391 -5.36048 -9.78668 -6.0391 91.2036 -48.8888 -99.2136 22.692 -21.7114 33.5658 -20.3906 31.8927 -105.917 -25.6577 14.9457 -62.3936 -105.845 -50.176 55.74 0.912583 38.2168 -19.3541 -8.44575 -16.3907 -100.189 34.4591 -5.77267 -21.3258 4.40283 -1.70108 -0.434843 19.2639 -1.49449 0.482701 
-249.635 88.8531 -238.629 73.5422 11.2677 92.9072 -173.906 55.7376 82.176 -61.8215 66.9064 0.052437 58.4893 10.5299 11.9368 47.0372 16.5241 13.3648 176.484 39.9501 118.304 -94.4905 55.3761 10.358 150.775 23.1528 -18.0852 38.8249 17.1348 156.294 -4.81985 8.37219 -92.1793 9.98039 -10.5953 -3.45973 -1.65026 -10.7371 -2.98532 -24.4208 -9.06432 -6.50276 -4.40813 -9.06432 -6.50275 90.8312 -47.8231 -100.032 22.3366 -20.3723 33.9339 -24.0544 16.923 -97.0604 -35.2472 20.5363 -61.9259 -105.625 -50.3848 56.1415 3.59469 45.3793 -23.2792 9.79301 -17.9752 -90.8937 40.3234 -8.6786 -26.2616 4.92506 -1.47269 0.865458 18.9759 -1.79306 -1.07414 
-244.622 88.758 -233.998 73.9487 9.41159 93.5751 -176.271 53.5777 83.1319 -62.8903 57.682 2.89994 62.4222 10.0946 8.53297 45.9089 16.0732 17.0513 178.478 21.3282 108.892 -87.3229 29.1676 32.9 161.163 2.62866 -3.71678 38.0631 13.9282 157.961 -4.72955 8.55582 -92.1347 9.61457 -10.3918 -3.43145 -2.01772 -10.5326 -2.96631 -24.7778 -8.87885 -6.41336 -4.7652 -8.87882 -6.41334 90.8544 -48.0277 -99.9501 21.6652 -20.4902 33.0457 -23.1693 3.97651 -90.1623 -41.7931 22.968 -58.9562 -106.381 -50.8274 55.2791 6.82992 48.7751 -26.3469 25.2388 -14.7595 -84.7702 39.8824 -6.20658 -20.0077 4.80801 -1.13043 -0.496198 19.8333 -1.21251 -0.88858 
-239.549 88.5473 -229.114 75.7731 7.66188 93.587 178.162 48.2594 86.1481 -65.4213 52.417 7.88474 62.4243 6.00702 6.28536 47.3526 17.7376 17.9924 -179.644 1.49809 105.751 -65.9762 16.7683 48.0611 161.158 -18.6513 8.06893 33.6183 -16.7363 159.201 -4.78388 8.90958 -91.9027 8.92295 -10.39 -3.05786 -2.70853 -10.5144 -2.59301 -25.4818 -8.98875 -6.0584 -5.46912 -8.98875 -6.0584 90.3212 -49.1805 -100.518 21.1654 -20.1693 32.5257 -13.1018 -0.0215827 -90.2008 -36.386 17.3029 -54.1772 -106.376 -50.0884 54.954 6.00979 48.0613 -25.7819 33.5523 -12.0693 -86.0071 25.3832 -1.21857 -8.72196 4.03201 -0.382346 -2.80967 20.6343 -0.0425572 -0.421392 
-234.172 88.3235 -224.552 75.7485 5.54138 93.7433 174.003 42.0881 89.5116 -65.5301 50.0424 11.185 66.052 8.16393 10.1261 42.7777 11.6759 7.13173 171.805 -7.44139 111.124 -66.7142 29.2254 39.2328 144.442 -27.3005 4.95116 15.7996 -50.8705 133.145 -4.88426 9.08965 -91.81 8.56603 -10.5462 -2.91179 -3.06386 -10.664 -2.43992 -25.8509 -9.18122 -5.96789 -5.83823 -9.18118 -5.96789 88.5385 -49.1561 -103.277 22.0763 -18.2735 33.7461 -3.15988 -0.495004 -91.2171 -27.3591 9.72654 -44.8614 -106.408 -49.821 54.7894 5.21961 46.3251 -24.6649 37.5255 -12.0586 -89.1103 3.98142 0.126848 -0.454915 1.87503 0.988744 -0.897864 23.4842 0.403121 -2.78763 
-228.004 87.7654 -219.926 77.8588 0.076925 94.8098 173.785 32.1912 93.1195 -63.0274 40.8828 12.0685 74.264 15.7342 12.8748 41.7462 10.252 1.21959 160.361 -8.52856 109.456 -76.4291 27.5384 26.8881 106.32 -26.6022 -3.99389 -29.9269 -40.746 50.3073 -4.58903 9.5994 -91.6489 7.55403 -9.87766 -2.75972 -4.08102 -9.98942 -2.31831 -26.8359 -8.58972 -5.61799 -6.82323 -8.58973 -5.618 89.2695 -50.0894 -101.919 21.6428 -17.2508 32.8639 0.829675 -0.934466 -92.9415 -18.1002 3.48092 -28.9625 -106.176 -48.9426 54.7166 5.80554 45.8735 -25.9438 36.808 -13.2697 -91.4852 -9.73248 -0.518883 2.59017 1.77377 2.35262 -2.27345 25.063 2.16757 -1.67265 
-223.159 88.4099 -216.483 79.2023 -3.71405 94.674 173.955 23.4502 93.7384 -55.8561 33.7404 11.5644 74.9044 17.6883 13.3764 45.0703 12.7974 0.451184 149.472 3.94955 100.423 -89.2796 14.9616 16.0431 62.5413 -4.75668 -3.00819 9.84271 -2.26531 12.3149 -4.71979 9.9229 -91.4337 6.91889 -10.0403 -2.40542 -4.7143 -10.1363 -1.95689 -27.4888 -8.8507 -5.33162 -7.47614 -8.85069 -5.33161 89.7026 -49.1061 -101.492 22.5797 -16.3678 32.1712 0.324306 -1.52311 -93.4075 -8.28421 0.939823 -20.1446 -106.469 -48.6784 54.1803 7.06844 47.0437 -27.1389 33.1631 -14.4333 -92.503 -9.67073 -0.573108 3.18445 4.00281 4.1524 -3.85156 23.6769 4.50484 -0.515967 
